<?xml version="1.0" standalone="no"?>
<!DOCTYPE svg PUBLIC "-//W3C//DTD SVG 20010904//EN"
 "http://www.w3.org/TR/2001/REC-SVG-20010904/DTD/svg10.dtd">
<svg version="1.0" xmlns="http://www.w3.org/2000/svg"
 width="707.000000pt" height="200.000000pt" viewBox="0 0 707.000000 200.000000"
 preserveAspectRatio="xMidYMid meet">
<metadata>
Created by potrace 1.15, written by Peter Selinger 2001-2017
</metadata>
<g transform="translate(0.000000,200.000000) scale(0.100000,-0.100000)"
fill="#000000" stroke="none">
<path d="M2590 1090 l0 -510 70 0 70 0 0 225 0 225 190 0 190 0 0 55 0 55
-190 0 -190 0 0 170 0 170 205 0 205 0 0 60 0 60 -275 0 -275 0 0 -510z"/>
<path d="M3549 1311 c-49 -10 -105 -46 -133 -87 l-23 -35 -7 32 c-3 17 -6 42
-6 55 0 23 -4 24 -60 24 l-60 0 0 -360 0 -360 69 0 69 0 4 223 c3 182 7 229
22 262 33 77 88 115 166 115 l40 0 0 65 c0 36 -4 65 -9 65 -5 0 -15 2 -23 4
-7 2 -29 1 -49 -3z"/>
</g>
</svg>
